<svg xmlns="http://www.w3.org/2000/svg" version="1.1" xmlns:xlink="http://www.w3.org/1999/xlink" xmlns:svgjs="http://svgjs.dev/svgjs" width="1000" height="103" viewBox="0 0 1000 103"><g transform="matrix(1,0,0,1,-0.6060577708690289,-0.6197194082072386)"><svg viewBox="0 0 396 41" data-background-color="#ffffff" preserveAspectRatio="xMidYMid meet" height="103" width="1000" xmlns="http://www.w3.org/2000/svg" xmlns:xlink="http://www.w3.org/1999/xlink"><g id="tight-bounds" transform="matrix(1,0,0,1,0.23999910644693045,0.24668442462618145)"><svg viewBox="0 0 395.52 40.50663046477128" height="40.50663046477128" width="395.52"><g><svg viewBox="0 0 428.85441299010273 43.920527988917115" height="40.50663046477128" width="395.52"><g transform="matrix(1,0,0,1,33.33441299010276,6.070058499191875)"><svg viewBox="0 0 395.52 31.780410990533365" height="31.780410990533365" width="395.52"><g id="textblocktransform"><svg viewBox="0 0 395.52 31.780410990533365" height="31.780410990533365" width="395.52" id="textblock"><g><svg viewBox="0 0 395.52 31.780410990533365" height="31.780410990533365" width="395.52"><g transform="matrix(1,0,0,1,0,0)"><svg width="395.52" viewBox="1.9500000476837158 -34.29999923706055 433.05999755859375 34.79999923706055" height="31.780410990533365" data-palette-color="#111111"><path d="M22.7-32.2L22.7-32.2 22.7-25Q18.65-27.35 14.3-27.35L14.3-27.35Q12.35-27.35 11.33-26.55 10.3-25.75 10.3-24.5 10.3-23.25 11.55-22.28 12.8-21.3 15.3-20.2L15.3-20.2Q16.85-19.5 17.88-18.98 18.9-18.45 20.23-17.53 21.55-16.6 22.33-15.58 23.1-14.55 23.65-13.05 24.2-11.55 24.2-9.8L24.2-9.8Q24.2-5.25 20.85-2.43 17.5 0.4 11.95 0.4L11.95 0.4Q6 0.4 2.25-1.7L2.25-1.7 2.25-9.45Q6.8-6.15 11.95-6.15L11.95-6.15Q13.7-6.15 14.85-7.08 16-8 16-9.5L16-9.5Q16-10 15.85-10.45 15.7-10.9 15.3-11.3 14.9-11.7 14.53-11.98 14.15-12.25 13.43-12.63 12.7-13 12.2-13.25 11.7-13.5 10.73-13.95 9.75-14.4 9.15-14.65L9.15-14.65Q5.9-16.15 3.93-18.35 1.95-20.55 1.95-24.2L1.95-24.2Q1.95-28.55 5.15-31.23 8.35-33.9 14-33.9L14-33.9Q19.05-33.9 22.7-32.2ZM40.45-27.45L36.65-27.45 36.65-17.95 40.3-17.95Q45.3-17.95 45.3-22.85L45.3-22.85Q45.3-25 44-26.23 42.7-27.45 40.45-27.45L40.45-27.45ZM55.5 0L46.3 0 39-11.7 36.65-11.7 36.65 0 28.95 0 28.95-33.7 40.6-33.7Q46.25-33.7 49.67-30.7 53.1-27.7 53.1-22.9L53.1-22.9Q53.1-15.7 46.95-12.95L46.95-12.95 55.5 0ZM67.85 0L60.15 0 60.15-33.7 67.85-33.7 67.85 0ZM95.04-33.7L95.04-6.75 107.49-6.75 107.49 0 87.34 0 87.34-33.7 95.04-33.7ZM121.94-14.3L121.59-13.1 129.69-13.1 129.34-14.3Q127.89-19.2 126.96-22.65 126.04-26.1 125.84-27.1L125.84-27.1 125.64-28.1Q125.24-25.35 121.94-14.3L121.94-14.3ZM141.84 0L133.59 0 131.54-6.9 119.74-6.9 117.69 0 109.64 0 120.89-33.7 130.59-33.7 141.84 0ZM153.94 0L146.24 0 146.24-33.7 154.69-33.7 162.54-19.75Q164.19-16.8 165.41-14.23 166.64-11.65 166.99-10.6L166.99-10.6 167.39-9.5Q166.89-13.2 166.89-19.75L166.89-19.75 166.89-33.7 174.59-33.7 174.59 0 166.14 0 158.09-13.95Q156.49-16.65 155.26-19.28 154.04-21.9 153.59-23.15L153.59-23.15 153.19-24.4Q153.94-19.9 153.94-13.95L153.94-13.95 153.94 0ZM188.78 0L181.08 0 181.08-33.7 188.78-33.7 188.78 0ZM209.18-33.7L198.13-16.85 210.08 0 200.43 0 189.13-16.75 200.03-33.7 209.18-33.7ZM224.38-14.3L224.03-13.1 232.13-13.1 231.78-14.3Q230.33-19.2 229.41-22.65 228.48-26.1 228.28-27.1L228.28-27.1 228.08-28.1Q227.68-25.35 224.38-14.3L224.38-14.3ZM244.28 0L236.03 0 233.98-6.9 222.18-6.9 220.13 0 212.08 0 223.33-33.7 233.03-33.7 244.28 0ZM256.38 0L248.68 0 248.68-33.7 257.13-33.7 264.98-19.75Q266.63-16.8 267.85-14.23 269.08-11.65 269.43-10.6L269.43-10.6 269.83-9.5Q269.33-13.2 269.33-19.75L269.33-19.75 269.33-33.7 277.03-33.7 277.03 0 268.58 0 260.53-13.95Q258.93-16.65 257.7-19.28 256.48-21.9 256.03-23.15L256.03-23.15 255.63-24.4Q256.38-19.9 256.38-13.95L256.38-13.95 256.38 0ZM312.12-20.1L325.07-20.1 325.07-3.1Q320.27 0.4 312.97 0.4L312.97 0.4Q304.87 0.4 299.82-4.25 294.77-8.9 294.77-16.9L294.77-16.9Q294.77-24.8 300.05-29.55 305.32-34.3 313.42-34.3L313.42-34.3Q319.12-34.3 323.27-32.2L323.27-32.2 323.27-24.5Q318.47-27.25 313.42-27.25L313.42-27.25Q308.67-27.25 305.87-24.43 303.07-21.6 303.07-16.9L303.07-16.9Q303.07-12.15 305.82-9.35 308.57-6.55 313.32-6.55L313.32-6.55Q315.47-6.55 317.57-7.2L317.57-7.2 317.57-13.55 312.12-13.55 312.12-20.1ZM350.77-13L350.77-13 350.77-33.7 358.47-33.7 358.47-13.05Q358.47-6.45 354.77-2.98 351.07 0.5 344.77 0.5L344.77 0.5Q338.57 0.5 334.82-2.95 331.07-6.4 331.07-12.7L331.07-12.7 331.07-33.7 338.77-33.7 338.77-12.75Q338.77-6.5 344.77-6.5 350.77-6.5 350.77-13ZM372.92 0L365.22 0 365.22-33.7 372.92-33.7 372.92 0ZM387.81-27.35L387.81-6.3 391.31-6.3Q395.97-6.3 398.49-9.2 401.02-12.1 401.02-17.4L401.02-17.4Q401.02-21.9 398.47-24.63 395.92-27.35 391.27-27.35L391.27-27.35 387.81-27.35ZM379.92 0L379.92-33.7 391.52-33.7Q399.12-33.7 403.97-29.03 408.81-24.35 408.81-17.4L408.81-17.4Q408.81-9.3 404.04-4.65 399.27 0 391.42 0L391.42 0 379.92 0ZM421.81-13.8L421.81-6.15 435.01-6.15 435.01 0 414.06 0 414.06-33.7 434.81-33.7 434.81-27.55 421.81-27.55 421.81-19.9 433.41-19.9 433.41-13.8 421.81-13.8Z" opacity="1" transform="matrix(1,0,0,1,0,0)" fill="#111111" class="wordmark-text-0" data-fill-palette-color="primary" id="text-0"></path></svg></g></svg></g></svg></g></svg></g><g><svg viewBox="0 0 25.831820685101604 43.920527988917115" height="43.920527988917115" width="25.831820685101604"><g><svg xmlns="http://www.w3.org/2000/svg" xmlns:xlink="http://www.w3.org/1999/xlink" version="1.1" x="0" y="0" viewBox="26.994159698486328 2.466042995452881 56.305843353271484 95.73395538330078" enable-background="new 0 0 100 100" xml:space="preserve" height="43.920527988917115" width="25.831820685101604" class="icon-icon-0" data-fill-palette-color="accent" id="icon-0"><g fill="#111111" data-fill-palette-color="accent"><path d="M53 6.8l-15.4 7.8L37 13.4c-0.2-0.4-0.1-0.8 0.2-1.1l12.2-9.6c0.5-0.4 1.3-0.3 1.7 0.4L53 6.8z" fill="#111111" data-fill-palette-color="accent"></path></g><g fill="#111111" data-fill-palette-color="accent"><path d="M38.9 17.1c-0.3 0-0.5-0.2-0.7-0.4-0.2-0.4 0-0.8 0.3-1l17.5-8.9c0.4-0.2 0.8 0 1 0.3 0.2 0.4 0 0.8-0.3 1L39.3 17C39.2 17.1 39.1 17.1 38.9 17.1z" fill="#111111" data-fill-palette-color="accent"></path></g><g fill="#111111" data-fill-palette-color="accent"><g fill="#111111" data-fill-palette-color="accent"><path d="M39.8 18.1c0 0.5 0.1 1 0.3 1.6 1.3 4.8 6.2 7.6 11 6.3 4.8-1.3 7.6-6.2 6.3-11-0.5-1.8-1.5-3.3-2.8-4.4L39.8 18.1z" fill="#111111" data-fill-palette-color="accent"></path></g></g><path d="M80 27c0 0-28.3 0-28.7 0l0 0c-1.9 0.1-3.5 0.7-4.9 1.8-0.3 0.3-0.9 0.8-1.2 1.2L27.7 52.1c-1.1 1.4-0.9 3.6 0.5 4.7 0.6 0.5 1.3 0.7 2.1 0.7 1 0 2-0.4 2.6-1.3l10.4-13.1L44 58.4l20.7-1.6-3.9-21.5c0-0.5-0.1-1.1-0.3-1.6H80c1.8 0 3.3-1.5 3.3-3.3S81.8 27 80 27z" fill="#111111" data-fill-palette-color="accent"></path><g fill="#111111" data-fill-palette-color="accent"><polygon points="56.1,92.9 45.4,92.9 46.2,59.6 60.6,58.6  " fill="#111111" data-fill-palette-color="accent"></polygon></g><g fill="#111111" data-fill-palette-color="accent"><g fill="#111111" data-fill-palette-color="accent"><path d="M51.6 98.2h-9.1c-0.6 0-0.9-0.7-0.5-1.2l2.2-2.4h5.9L51.6 98.2z" fill="#111111" data-fill-palette-color="accent"></path></g></g><g fill="#111111" data-fill-palette-color="accent"><g fill="#111111" data-fill-palette-color="accent"><path d="M62.3 98.2h-8.8c-0.3 0-0.5-0.2-0.6-0.4l-1-2.4c-0.2-0.4 0.1-0.9 0.6-0.9h4.7c0.1 0 0.2 0 0.3 0.1l5 2.4C63.1 97.3 62.9 98.2 62.3 98.2z" fill="#111111" data-fill-palette-color="accent"></path></g></g></svg></g></svg></g></svg></g><defs></defs></svg><rect width="395.52" height="40.50663046477128" fill="none" stroke="none" visibility="hidden"></rect></g></svg></g></svg>