<svg version="1.1" id="Layer_1" xmlns="http://www.w3.org/2000/svg" xmlns:xlink="http://www.w3.org/1999/xlink" x="0px" y="0px"
	 width="100%" viewBox="0 0 500 500" enable-background="new 0 0 500 500" xml:space="preserve">
<path fill="#FFFFFF" opacity="1.000000" stroke="none" 
	d="
M234.000000,501.000000 
	C156.000015,501.000000 78.500038,501.000000 1.000041,501.000000 
	C1.000028,334.333405 1.000028,167.666779 1.000014,1.000131 
	C167.666565,1.000087 334.333130,1.000087 500.999756,1.000044 
	C500.999847,167.666519 500.999847,334.333038 500.999939,500.999786 
	C412.166656,501.000000 323.333344,501.000000 234.000000,501.000000 
M104.916901,125.068825 
	C104.916901,125.068825 104.719681,125.040886 104.289131,124.406502 
	C101.853981,124.368073 99.418831,124.329643 96.330048,124.118736 
	C96.104706,124.119057 95.879372,124.119377 95.220551,123.612381 
	C93.530571,123.753792 91.840591,123.895203 89.687584,124.051620 
	C89.687584,124.051620 89.254929,124.217247 88.671501,124.154991 
	C88.439423,124.431168 88.207352,124.707344 88.001923,124.995239 
	C88.001923,124.995239 87.978508,124.973221 87.214516,125.011002 
	C85.729172,125.972183 83.891258,126.677887 82.923172,128.013885 
	C82.506264,128.589249 83.891380,130.470383 84.536476,131.937119 
	C85.986931,129.969330 86.990891,128.607285 88.077957,127.908424 
	C90.013962,129.687027 91.949966,131.465637 93.602509,133.802383 
	C95.037430,135.526367 96.472343,137.250336 98.032608,139.768661 
	C97.355728,140.873764 96.936470,142.507462 95.954285,142.986191 
	C92.843025,144.502594 88.803528,145.289185 93.683357,149.539215 
	C94.117287,149.917130 93.955688,151.114105 93.884964,151.914246 
	C93.422073,157.151154 87.797195,163.744858 82.597626,165.210541 
	C81.098358,158.859390 77.403641,156.242798 70.698471,157.213242 
	C73.244545,158.940247 75.733078,160.200134 77.678398,162.035690 
	C81.899345,166.018478 82.430687,178.809219 79.174706,183.786224 
	C76.920296,187.232254 75.207779,191.033630 73.267517,194.683899 
	C72.504272,196.119827 71.780174,197.576569 70.476654,199.002701 
	C70.102364,198.991653 69.728065,198.980606 69.258736,198.215317 
	C69.189438,197.914078 69.151039,197.600403 69.037193,197.317062 
	C68.984055,197.184860 68.699875,196.999680 68.663895,197.027069 
	C64.208771,200.417511 64.354286,205.307724 64.508804,210.137146 
	C64.903633,222.477676 65.389633,234.815292 65.801598,247.155319 
	C65.834396,248.137711 65.870239,249.300980 65.408577,250.089859 
	C62.137417,255.679749 63.943569,262.033630 63.729679,267.739258 
	C63.402214,276.474457 66.284035,285.333862 67.841621,294.133820 
	C68.414474,297.370331 69.095215,300.587769 69.872925,304.428833 
	C72.511482,312.709778 79.614792,315.469635 86.821106,318.026855 
	C89.796928,319.082855 93.113159,321.075043 95.863838,320.537964 
	C107.054039,318.352997 118.085037,315.352692 130.068909,312.555176 
	C135.139191,310.229797 140.077820,307.538422 145.307861,305.657135 
	C155.406418,302.024597 160.495377,294.249512 164.171951,284.155426 
	C165.682983,277.561005 167.431076,271.009003 168.622406,264.357330 
	C169.427414,259.862701 169.872604,255.102402 164.709717,252.256561 
	C167.311951,250.315536 169.643875,248.589645 165.907990,245.240677 
	C163.281021,240.763046 160.405060,236.409134 158.100510,231.771301 
	C155.999481,227.542999 154.518097,223.006836 152.977890,217.923065 
	C152.965134,215.568588 153.190796,213.183182 152.890366,210.866013 
	C152.250992,205.934555 151.338287,201.038528 150.537613,196.127991 
	C146.548996,200.529755 143.943115,197.522888 141.210739,195.510849 
	C142.890152,195.105209 144.569550,194.699585 146.598114,194.209610 
	C147.117798,189.211548 144.069748,185.567383 141.005875,181.239487 
	C140.975708,180.579803 141.214951,179.685104 140.875137,179.295547 
	C135.443085,173.068420 132.455841,165.771866 130.793686,157.749451 
	C130.391464,155.808044 129.002274,153.780197 127.501236,152.413361 
	C123.433754,148.709503 119.062431,145.339340 114.874680,141.132233 
	C114.087448,139.806427 113.471169,138.332611 112.477768,137.185318 
	C110.340302,134.716736 108.008713,132.416229 105.928993,129.302963 
	C105.609329,127.955582 105.289665,126.608192 104.916901,125.068825 
M289.031647,214.870544 
	C288.670837,211.909515 288.310059,208.948502 288.154907,205.071045 
	C288.154907,194.876266 288.154907,184.681473 288.154907,174.525818 
	C284.802124,174.525818 282.235474,174.525818 279.424866,174.525818 
	C279.424866,187.554626 279.424866,200.267197 279.218597,213.883606 
	C279.218597,217.128830 279.218597,220.374054 279.218597,223.606598 
	C285.048340,223.606598 290.361603,223.606598 295.491882,223.606598 
	C295.491882,220.811157 295.491882,218.439499 295.491882,215.713745 
	C293.122650,215.713745 291.156860,215.713745 289.031647,214.870544 
M342.644897,193.554276 
	C342.644897,193.554276 342.806519,193.753555 342.766418,194.439499 
	C342.749390,194.897202 342.732361,195.354904 342.168243,195.918762 
	C341.804504,195.925339 341.440735,195.931931 340.966187,195.131714 
	C340.011658,190.750168 339.063995,186.367142 338.101166,181.987427 
	C336.243713,173.538300 336.239929,173.536255 327.430206,174.266113 
	C327.131042,174.290909 326.846832,174.495911 326.344543,174.704666 
	C326.344543,190.984421 326.344543,207.333679 326.344543,223.615555 
	C329.422882,223.615555 332.140289,223.615555 334.904297,223.615555 
	C334.904297,214.614929 334.904297,205.982849 334.904297,197.350754 
	C335.105469,197.329498 335.306610,197.308228 335.507782,197.286972 
	C337.426666,206.080856 339.345581,214.874741 341.266266,223.676819 
	C344.842072,223.676819 348.072693,223.676819 351.441193,223.676819 
	C351.441193,217.254761 351.441193,211.140182 351.681244,204.356293 
	C351.602997,203.895752 351.524750,203.435196 351.658112,202.216293 
	C351.499756,200.156265 351.341431,198.096252 351.571045,195.314163 
	C351.571045,188.378342 351.571045,181.442505 351.571045,174.497101 
	C348.418152,174.497101 345.704742,174.497101 342.748413,174.497101 
	C342.748413,181.037796 342.748413,187.178650 342.644897,193.554276 
M236.272018,285.567566 
	C235.035995,288.221069 233.799973,290.874603 232.563965,293.528107 
	C232.048691,293.334564 231.533432,293.140991 231.018158,292.947418 
	C231.293106,285.941101 237.124344,278.867401 230.925934,271.709351 
	C228.141434,277.401642 225.125778,283.124664 224.419205,289.119843 
	C223.800827,294.366852 220.772812,295.916840 216.879791,298.252533 
	C216.973007,296.965881 216.884216,296.123444 217.113205,295.378662 
	C218.279785,291.584259 219.947845,287.881561 220.561737,284.007568 
	C220.844818,282.221313 219.122406,280.117279 218.309326,278.157318 
	C217.098038,279.152771 215.469131,279.915497 214.758881,281.190094 
	C213.070404,284.220245 211.765106,287.470673 210.399216,290.672302 
	C208.299179,295.594788 204.351395,297.989258 198.116440,300.011597 
	C203.424255,289.458984 206.428726,279.145050 218.204102,274.835968 
	C212.124405,272.276703 206.524353,274.258179 202.376038,280.129364 
	C199.159164,284.682251 196.588333,289.688293 193.432724,294.288757 
	C191.119919,297.660522 191.697647,300.435181 194.166901,303.245483 
	C196.780106,306.219604 199.809982,305.441315 202.823761,304.145081 
	C204.209595,303.549103 205.470734,302.663147 206.788406,301.908691 
	C207.121002,302.199890 207.453613,302.491119 207.786209,302.782318 
	C206.029999,305.661102 203.992508,308.408661 202.575516,311.445709 
	C199.520935,317.992615 196.651154,324.636505 194.048203,331.373047 
	C193.602936,332.525452 194.595123,335.417419 195.378265,335.604858 
	C196.844147,335.955750 198.945343,335.331268 200.253204,334.382965 
	C207.201004,329.345123 211.506363,321.757935 212.744156,313.996399 
	C214.120880,305.363770 219.653595,301.482056 225.046432,296.697632 
	C232.992264,302.727966 234.272797,302.359436 240.775360,292.792847 
	C243.718689,292.792847 246.359802,292.792847 249.084488,292.792847 
	C250.576263,294.728638 252.293442,296.956909 254.923264,300.369446 
	C257.277039,293.132874 259.246948,287.406158 260.906647,281.590912 
	C261.135254,280.789856 260.078827,279.145905 259.183167,278.583008 
	C255.417206,276.216217 253.123505,277.878601 250.009979,284.501434 
	C249.423950,285.748016 247.870102,286.539581 246.762848,287.541107 
	C246.000458,282.091400 246.489059,277.261932 239.114456,277.162506 
	C238.304550,279.586639 237.429276,282.206421 236.272018,285.567566 
M436.235626,174.242401 
	C433.636475,174.242401 431.037323,174.242401 428.005554,174.242401 
	C428.005554,182.647797 428.005554,190.459503 428.005554,198.271225 
	C427.747467,198.294785 427.489349,198.318359 427.231262,198.341919 
	C425.430603,190.330948 423.629944,182.319977 421.846161,174.384079 
	C418.238281,174.384079 415.137024,174.384079 411.888916,174.384079 
	C411.888916,191.023712 411.888916,207.376602 411.888916,223.737030 
	C414.929077,223.737030 417.533295,223.737030 420.454346,223.737030 
	C420.454346,216.384354 420.454346,209.274750 420.454346,202.165146 
	C420.908478,202.087311 421.362610,202.009476 421.816742,201.931641 
	C423.500366,209.186569 425.184021,216.441498 426.857605,223.653214 
	C430.381775,223.653214 433.605988,223.653214 436.882202,223.653214 
	C436.882202,207.184372 436.882202,191.049042 436.235626,174.242401 
M356.131958,188.507416 
	C356.131958,200.255615 356.131958,212.003815 356.131958,223.844482 
	C359.392853,223.844482 362.021606,223.844482 365.413544,223.844482 
	C365.413544,216.921326 365.413544,210.113403 365.413544,203.305466 
	C365.863739,203.267334 366.313965,203.229202 366.764160,203.191071 
	C367.791931,207.280838 368.847076,211.363983 369.841858,215.461761 
	C371.982208,224.277924 371.969635,224.284698 381.014435,223.929871 
	C381.283203,223.919342 381.541534,223.642960 381.981781,223.388000 
	C379.892303,216.274200 377.639648,209.164337 375.782349,201.952621 
	C375.198975,199.687485 375.201538,197.031433 375.760925,194.757217 
	C377.415314,188.031082 379.481720,181.406281 381.402191,174.688690 
	C371.828918,173.194992 371.853088,173.200668 369.889923,181.558350 
	C368.907257,185.741791 367.817963,189.900177 366.776886,194.069901 
	C366.252960,193.993301 365.729065,193.916702 365.205139,193.840103 
	C365.205139,187.321136 365.205139,180.802170 365.205139,174.398636 
	C361.910522,174.398636 359.314056,174.398636 356.165955,174.398636 
	C356.165955,178.948730 356.165955,183.230728 356.131958,188.507416 
M227.128372,222.100739 
	C229.915634,222.942719 232.702896,223.784698 236.433868,224.911758 
	C236.433868,217.354675 236.433868,211.229630 236.433868,205.104584 
	C237.035660,204.999298 237.637451,204.894012 238.239243,204.788712 
	C239.663422,211.128159 241.087585,217.467606 242.507095,223.786255 
	C245.553329,223.786255 248.165543,223.786255 251.280762,223.786255 
	C250.030472,217.716309 248.795685,211.933197 247.678650,206.127396 
	C247.443466,204.905075 247.115707,203.208984 247.721893,202.394638 
	C252.303406,196.239777 250.461136,189.319107 250.152649,182.674011 
	C249.958664,178.495224 247.328476,175.242737 243.080978,174.808212 
	C237.914093,174.279633 232.651917,174.682587 227.108963,174.682587 
	C227.108963,190.293259 227.108963,205.731689 227.128372,222.100739 
M386.509552,192.864944 
	C385.295837,203.066879 384.082123,213.268814 382.847229,223.648590 
	C386.141022,223.648590 388.997711,223.648590 391.852081,223.648590 
	C392.293243,219.667908 392.693329,216.057693 393.101471,212.375046 
	C394.888824,212.375046 396.424194,212.375046 397.936035,212.375046 
	C398.389832,216.331696 398.803650,219.939896 399.240173,223.746124 
	C402.327148,223.746124 405.230286,223.746124 408.666107,223.746124 
	C406.670288,207.127472 404.715973,190.854645 402.741669,174.415253 
	C397.921570,174.415253 393.529785,174.415253 388.850555,174.415253 
	C388.104156,180.446899 387.390350,186.215302 386.509552,192.864944 
M304.991302,174.180450 
	C304.328613,175.129395 303.203583,176.018784 303.072540,177.036194 
	C301.081146,192.498474 299.219788,207.977524 297.297302,223.704224 
	C300.429626,223.704224 303.307098,223.704224 306.493958,223.704224 
	C306.835663,219.697449 307.152863,215.977676 307.470032,212.258636 
	C309.441833,212.258636 310.878021,212.258636 312.530426,212.258636 
	C312.923309,216.207809 313.296173,219.955719 313.668243,223.695831 
	C316.970490,223.695831 319.874359,223.695831 323.194031,223.695831 
	C321.173889,207.030258 319.200836,190.753235 317.190155,174.165802 
	C313.147217,174.165802 309.517731,174.165802 304.991302,174.180450 
M214.037964,184.819870 
	C214.037964,186.735428 214.037964,188.650986 214.037964,190.664841 
	C217.359039,190.664841 219.961243,190.664841 223.001999,190.664841 
	C223.001999,188.344452 223.056931,186.225723 222.991699,184.110703 
	C222.795090,177.735779 218.697281,173.688797 212.238083,173.431000 
	C205.439362,173.159653 200.961227,176.937241 200.152237,183.365967 
	C199.099869,191.728760 201.083954,198.675003 209.179306,202.581757 
	C213.991776,204.904236 214.792236,208.792603 214.005859,213.347488 
	C213.813736,214.460297 212.434799,215.368210 211.601532,216.370346 
	C210.733658,215.358551 209.341721,214.451935 209.112930,213.311890 
	C208.704422,211.276337 208.997940,209.099930 208.997940,206.865143 
	C205.784927,206.865143 203.018356,206.865143 200.079453,206.865143 
	C200.079453,209.780823 199.884766,212.449707 200.119217,215.080368 
	C200.637390,220.894287 205.347229,224.893158 211.406250,224.903381 
	C217.831161,224.914215 222.383255,220.937012 223.112518,214.970917 
	C224.213806,205.961227 222.487183,198.404175 213.380753,194.182434 
	C209.446915,192.358704 208.509048,188.919159 209.173599,184.998001 
	C209.360214,183.896820 210.433945,182.945969 211.100754,181.926163 
	C212.066528,182.595764 213.032288,183.265366 214.037964,184.819870 
M296.112854,259.269043 
	C290.290375,255.522659 289.567322,255.844040 288.087799,262.489929 
	C287.523346,265.025330 286.685120,267.499786 286.236450,269.073395 
	C283.003326,269.469025 279.839294,268.888824 278.418793,270.198975 
	C272.548248,275.613373 267.378235,281.814423 266.095093,290.034424 
	C265.816681,291.817871 267.380219,294.803864 268.963318,295.696289 
	C270.440521,296.529053 273.512512,295.955719 275.101776,294.864380 
	C278.203156,292.734680 280.759399,289.811188 282.729736,287.973419 
	C285.448425,289.453552 287.730408,291.353668 290.280365,291.835480 
	C291.790924,292.120819 293.724518,290.166962 295.467896,289.219971 
	C295.260193,288.734070 295.052460,288.248169 294.844757,287.762268 
	C292.849670,287.473633 290.854614,287.184998 288.074860,286.782806 
	C289.292664,283.083557 290.424530,279.847900 291.421570,276.571167 
	C293.100708,271.052612 294.694305,265.507996 296.112854,259.269043 
M303.470795,284.776611 
	C301.928131,281.210663 302.414001,279.246002 306.978149,279.114777 
	C309.682861,279.036987 312.854126,278.403107 314.898926,276.828735 
	C316.988129,275.220154 319.286774,272.008484 319.038757,269.770691 
	C318.794312,267.565460 315.828400,264.842499 313.433960,263.852325 
	C306.896118,261.148682 303.725220,262.777893 298.501648,270.172577 
	C293.274506,277.572327 295.353210,286.521240 303.287537,290.906372 
	C307.331818,293.141541 311.067139,292.132477 314.434265,289.606781 
	C317.355713,287.415436 320.616272,285.183319 319.667145,279.838470 
	C316.881042,281.756012 314.801758,283.881348 312.292999,284.715881 
	C309.850342,285.528534 306.968140,285.019867 303.470795,284.776611 
M259.456512,224.018890 
	C260.874512,223.894196 262.292542,223.769501 263.621338,223.652664 
	C263.621338,206.992249 263.621338,190.775650 263.621338,174.414139 
	C260.633392,174.414139 257.922913,174.414139 254.825424,174.414139 
	C254.825424,190.318451 254.766830,205.905289 254.983032,221.488327 
	C254.994965,222.348328 257.288544,223.176682 259.456512,224.018890 
M258.812744,260.684540 
	C259.056213,263.050964 258.943268,265.538788 259.691010,267.733398 
	C260.074402,268.858704 262.785034,270.393921 263.087372,270.138458 
	C264.493530,268.950348 266.610596,266.888824 266.300659,265.712189 
	C265.437347,262.434998 263.520050,259.410675 258.812744,260.684540 
z"/>
<path fill="#9E223F" opacity="1.000000" stroke="none" 
	d="
M71.038246,199.023834 
	C71.780174,197.576569 72.504272,196.119827 73.267517,194.683899 
	C75.207779,191.033630 76.920296,187.232254 79.174706,183.786224 
	C82.430687,178.809219 81.899345,166.018478 77.678398,162.035690 
	C75.733078,160.200134 73.244545,158.940247 70.698471,157.213242 
	C77.403641,156.242798 81.098358,158.859390 82.597626,165.210541 
	C87.797195,163.744858 93.422073,157.151154 93.884964,151.914246 
	C93.955688,151.114105 94.117287,149.917130 93.683357,149.539215 
	C88.803528,145.289185 92.843025,144.502594 95.954285,142.986191 
	C96.936470,142.507462 97.355728,140.873764 98.373169,139.356171 
	C99.939980,139.322739 101.904137,139.354065 102.273193,140.137146 
	C104.739098,145.369446 107.856819,142.949982 111.327896,141.113647 
	C112.709923,141.314819 113.760757,141.575836 114.811600,141.836838 
	C119.062431,145.339340 123.433754,148.709503 127.501236,152.413361 
	C129.002274,153.780197 130.391464,155.808044 130.793686,157.749451 
	C132.455841,165.771866 135.443085,173.068420 140.875137,179.295547 
	C141.214951,179.685104 140.975708,180.579803 140.574463,181.650604 
	C139.179169,183.438721 138.215302,184.815750 137.266220,186.171646 
	C135.021072,184.534744 133.044525,183.093658 131.017670,181.615906 
	C129.808228,184.032822 128.991562,185.664856 127.915558,187.815125 
	C124.849014,184.691925 122.694557,180.789749 118.304626,184.531937 
	C119.084236,185.443771 119.890060,186.386276 121.242119,187.967667 
	C116.220154,187.351303 111.591072,191.811813 107.655678,186.404999 
	C107.264618,185.867737 105.263542,185.956253 104.423203,186.453339 
	C103.659294,186.905212 102.811356,188.824738 103.117065,189.209015 
	C104.858215,191.397751 106.786140,193.497055 108.931526,195.290695 
	C111.880005,197.755798 114.742989,200.556717 118.990723,200.712143 
	C119.015617,200.713043 119.009109,201.572235 118.586052,202.109833 
	C116.112709,202.167984 114.070580,202.146927 111.777405,202.056824 
	C111.352844,201.992493 111.179337,201.997223 110.737793,201.776215 
	C109.321228,201.404877 108.172691,201.259308 106.696388,201.043213 
	C105.511200,201.329330 104.653770,201.685989 103.650772,202.395782 
	C102.958931,205.158173 102.412666,207.567398 101.603195,210.136719 
	C100.750946,211.003128 100.161903,211.709457 98.611832,213.568161 
	C101.949860,212.773132 103.895485,212.309723 105.891708,211.894379 
	C105.942322,211.942413 106.044907,212.037033 106.073151,212.383484 
	C106.148628,213.583405 106.195854,214.436890 106.292633,216.185959 
	C107.753883,214.116959 108.672592,212.816132 109.577431,211.534958 
	C110.105698,212.990402 110.621330,214.411057 110.847191,215.033325 
	C113.952332,214.496948 116.402847,214.073639 119.027023,213.620346 
	C119.968552,216.701538 118.727272,218.065872 115.684700,219.366547 
	C108.923737,222.256775 101.542618,224.747726 99.244675,233.565155 
	C99.113625,235.284958 99.112740,236.626724 98.895645,238.150299 
	C97.499130,235.732605 96.583328,232.957321 95.023254,230.610275 
	C94.279961,229.492020 92.338150,228.809250 90.883797,228.705353 
	C90.314621,228.664703 89.593475,230.751266 88.682030,232.087112 
	C88.316864,233.194366 88.211205,234.083511 88.033806,235.395447 
	C88.002899,237.215927 88.043724,238.613632 88.047096,240.337250 
	C87.666252,241.161728 87.322861,241.660324 86.648529,242.102921 
	C85.874969,242.094376 85.432350,242.141830 84.723175,242.185577 
	C84.205345,242.422104 83.954071,242.662338 83.384438,242.902969 
	C82.638756,242.312347 82.211426,241.721344 81.784103,241.130325 
	C85.391891,240.580246 85.374458,237.715607 85.702057,234.699493 
	C85.797813,233.886627 85.858383,233.423080 86.006577,232.725082 
	C86.015800,232.343353 85.937386,232.196060 85.882523,231.717285 
	C86.041435,230.964737 86.176788,230.543655 86.585838,230.040283 
	C86.859543,228.909225 86.859543,227.860474 86.859543,227.755798 
	C88.908371,225.914536 90.608650,224.573822 91.983482,222.956451 
	C92.198792,222.703125 90.934982,221.192551 90.355103,220.263306 
	C89.085526,221.076248 87.815941,221.889191 85.855804,223.144318 
	C88.566139,205.601974 91.193207,188.598587 93.820274,171.595215 
	C84.766487,187.179047 82.350258,204.739227 76.840637,221.494522 
	C76.686020,220.096161 76.531403,218.697815 76.353020,217.084442 
	C73.501175,217.007935 70.349121,216.666061 71.271729,220.486496 
	C71.794945,222.653107 74.300476,224.340988 75.627640,225.907394 
	C75.297028,225.966873 74.204285,226.163483 73.146461,226.353790 
	C73.353699,228.448425 73.534294,230.273788 73.783997,232.330414 
	C73.853096,232.561661 73.987129,233.024826 73.768463,233.217346 
	C73.701408,234.637283 73.853020,235.864731 73.711723,237.083862 
	C73.106087,237.392365 72.793365,237.709152 72.480644,238.025955 
	C72.959244,238.373627 73.437843,238.721298 73.958496,239.039612 
	C74.000542,239.010254 73.917603,239.075836 73.928177,239.321228 
	C73.938744,239.566635 73.927429,240.057770 73.569565,240.009476 
	C72.264885,240.604095 71.318077,241.247025 70.371269,241.889938 
	C71.595856,242.919754 72.820442,243.949585 74.284111,245.196457 
	C75.356300,245.627563 76.189407,245.841614 76.994446,246.256012 
	C76.966362,246.456375 76.942482,246.860291 76.717407,246.974182 
	C76.391785,247.389557 76.291229,247.691025 76.119720,248.326996 
	C76.090286,249.113419 76.131813,249.565323 76.111343,250.342621 
	C76.038269,251.109085 76.027206,251.550156 75.809555,252.133850 
	C75.393921,252.535751 75.184868,252.795029 74.672012,253.010284 
	C73.605789,251.636536 72.843353,250.306824 72.080925,248.977127 
	C71.068153,249.618973 69.503838,250.069977 69.197189,250.956161 
	C68.888428,251.848511 69.584610,253.380615 70.308426,254.236771 
	C70.800972,254.819382 72.099091,254.720963 73.238251,255.010712 
	C73.439514,255.094376 73.873550,255.053970 74.105812,255.245972 
	C74.903114,255.944809 75.468155,256.451630 75.747437,257.111694 
	C74.717842,257.874634 73.973999,258.484283 72.018768,260.086823 
	C75.282417,259.224884 74.942505,264.306885 78.402946,261.199707 
	C79.475510,260.702728 80.229683,260.326141 81.048965,259.631592 
	C80.541382,258.490265 79.968704,257.666901 79.261909,256.650726 
	C80.287987,256.419922 81.024590,256.254242 82.035500,256.278046 
	C83.530304,256.307770 84.750801,256.148010 86.316406,255.917206 
	C88.998169,252.515656 87.436981,251.269913 83.745758,251.131638 
	C83.267021,252.172089 83.108009,253.073318 82.642876,253.988342 
	C81.847244,253.668472 81.357742,253.334793 80.909767,252.669769 
	C80.931732,251.894501 80.912163,251.450577 80.980087,250.815750 
	C81.067581,250.624832 81.082542,250.205048 81.323273,249.984039 
	C81.401787,248.773560 81.239563,247.784088 81.354568,246.562744 
	C83.086418,246.171829 84.541031,246.012756 86.259583,245.926422 
	C86.698418,246.051407 86.873299,246.103653 86.943436,246.421967 
	C87.609001,247.670532 88.379318,248.653030 89.388535,249.737183 
	C89.987633,249.554382 90.347847,249.269928 90.923523,248.724503 
	C92.032990,249.136017 92.990524,249.739670 93.808380,250.494659 
	C95.800484,252.333633 97.727806,254.242798 99.918037,256.364380 
	C101.154602,256.429962 102.154343,256.254822 103.486992,255.933899 
	C104.224426,254.206467 104.628944,252.624847 105.348953,251.048676 
	C106.074844,251.146912 106.485252,251.239700 107.064667,251.614777 
	C108.651306,252.564636 110.068924,253.232208 112.189590,254.230850 
	C112.189590,256.187103 112.178970,259.017731 112.191643,261.848206 
	C112.225815,269.480560 111.247635,270.575745 103.806717,270.698700 
	C99.745659,270.765808 97.893021,272.613312 97.965782,276.189697 
	C102.118141,276.938080 105.760040,277.607391 109.406975,278.247986 
	C112.816078,278.846771 116.224678,279.774109 119.645348,279.829895 
	C121.126152,279.854034 124.042473,277.758484 123.910355,277.127838 
	C122.894928,272.280731 125.297768,270.173401 129.332352,268.686096 
	C130.350800,268.310669 130.980301,266.880157 132.619370,264.962280 
	C128.705154,265.310425 126.020241,265.549194 122.522194,265.860291 
	C123.847610,263.707123 124.847183,262.083313 126.234772,260.666199 
	C128.778839,260.590210 130.934921,260.307526 133.498901,260.031677 
	C135.031143,259.864471 136.187454,259.803986 137.274536,259.497681 
	C143.508118,257.741211 149.725296,255.926437 155.951660,254.542175 
	C156.740234,257.755890 156.832748,261.068115 158.446152,263.261688 
	C162.502991,268.777344 161.171570,273.709076 158.336075,278.873840 
	C149.256088,276.894623 148.357239,277.199829 146.618546,283.012970 
	C148.180145,282.638458 149.579254,282.302917 151.051697,282.063141 
	C151.125031,282.158936 151.264038,282.356140 151.404297,282.635498 
	C155.627579,283.527771 159.710571,284.140656 163.793579,284.753540 
	C160.495377,294.249512 155.406418,302.024597 145.307861,305.657135 
	C140.077820,307.538422 135.139191,310.229797 129.715424,312.223633 
	C128.811691,311.596375 128.288208,311.116150 127.707314,311.031921 
	C113.745308,309.007507 99.789604,306.931213 85.803772,305.083740 
	C80.481705,304.380768 75.087875,304.221161 69.726753,303.813904 
	C69.095215,300.587769 68.414474,297.370331 67.841621,294.133820 
	C66.284035,285.333862 63.402214,276.474457 63.729679,267.739258 
	C63.943569,262.033630 62.137417,255.679749 65.408577,250.089859 
	C65.870239,249.300980 65.834396,248.137711 65.801598,247.155319 
	C65.389633,234.815292 64.903633,222.477676 64.508804,210.137146 
	C64.354286,205.307724 64.208771,200.417511 68.663895,197.027069 
	C68.699875,196.999680 68.984055,197.184860 69.037193,197.317062 
	C69.151039,197.600403 69.189438,197.914078 69.181328,198.966675 
	C68.393715,202.915710 67.350281,206.091583 67.139206,209.321854 
	C67.056137,210.593292 68.832176,211.986191 70.073448,213.772552 
	C70.454826,207.942490 70.746536,203.483154 71.038246,199.023834 
z"/>
<path fill="#FDCB08" opacity="1.000000" stroke="none" 
	d="
M119.017273,202.030640 
	C119.009109,201.572235 119.015617,200.713043 118.990723,200.712143 
	C114.742989,200.556717 111.880005,197.755798 108.931526,195.290695 
	C106.786140,193.497055 104.858215,191.397751 103.117065,189.209015 
	C102.811356,188.824738 103.659294,186.905212 104.423203,186.453339 
	C105.263542,185.956253 107.264618,185.867737 107.655678,186.404999 
	C111.591072,191.811813 116.220154,187.351303 121.242119,187.967667 
	C119.890060,186.386276 119.084236,185.443771 118.304626,184.531937 
	C122.694557,180.789749 124.849014,184.691925 127.915558,187.815125 
	C128.991562,185.664856 129.808228,184.032822 131.017670,181.615906 
	C133.044525,183.093658 135.021072,184.534744 137.266220,186.171646 
	C138.215302,184.815750 139.179169,183.438721 140.499252,182.028748 
	C144.069748,185.567383 147.117798,189.211548 146.598114,194.209610 
	C144.569550,194.699585 142.890152,195.105209 141.428284,196.093018 
	C145.269531,199.146149 148.606705,201.674881 146.446838,206.938675 
	C144.796570,210.960587 142.909119,215.065948 146.215210,219.416245 
	C148.191147,219.171860 150.477371,218.889114 152.763596,218.606354 
	C154.518097,223.006836 155.999481,227.542999 158.100510,231.771301 
	C160.405060,236.409134 163.281021,240.763046 165.980942,245.922272 
	C165.490189,247.424438 165.100662,248.507202 164.331360,249.018280 
	C161.607040,250.828217 158.752945,252.442795 155.948029,254.131409 
	C149.725296,255.926437 143.508118,257.741211 137.274536,259.497681 
	C136.187454,259.803986 135.031143,259.864471 133.093735,260.007263 
	C130.516174,259.613831 128.761139,259.165985 126.978386,258.968719 
	C126.660049,258.933502 126.226891,259.936096 125.846756,260.459473 
	C124.847183,262.083313 123.847610,263.707123 122.522194,265.860291 
	C126.020241,265.549194 128.705154,265.310425 132.619370,264.962280 
	C130.980301,266.880157 130.350800,268.310669 129.332352,268.686096 
	C125.297768,270.173401 122.894928,272.280731 123.910355,277.127838 
	C124.042473,277.758484 121.126152,279.854034 119.645348,279.829895 
	C116.224678,279.774109 112.816078,278.846771 109.406975,278.247986 
	C105.760040,277.607391 102.118141,276.938080 97.965782,276.189697 
	C97.893021,272.613312 99.745659,270.765808 103.806717,270.698700 
	C111.247635,270.575745 112.225815,269.480560 112.191643,261.848206 
	C112.178970,259.017731 112.189590,256.187103 112.189590,254.230850 
	C110.068924,253.232208 108.651306,252.564636 106.973473,251.310104 
	C106.159355,250.465439 105.605438,250.207748 105.031204,249.588348 
	C103.540459,246.841354 102.070023,244.456070 100.599586,242.070786 
	C100.056030,242.475769 99.512474,242.880768 98.968910,243.285751 
	C100.964455,245.538345 102.959991,247.790924 104.973801,250.293533 
	C105.005867,250.710098 105.019661,250.876663 105.033463,251.043213 
	C104.628944,252.624847 104.224426,254.206467 103.053940,255.907104 
	C101.419060,256.058624 100.550133,256.091156 99.681213,256.123688 
	C97.727806,254.242798 95.800484,252.333633 93.808380,250.494659 
	C92.990524,249.739670 92.032990,249.136017 90.700836,248.737900 
	C89.891655,249.220016 89.520645,249.427780 89.149643,249.635544 
	C88.379318,248.653030 87.609001,247.670532 87.296577,246.307205 
	C87.864494,243.954697 87.974525,241.983017 88.084549,240.011337 
	C88.043724,238.613632 88.002899,237.215927 88.282684,235.168564 
	C88.716057,233.635605 88.828804,232.752304 88.941544,231.869003 
	C89.593475,230.751266 90.314621,228.664703 90.883797,228.705353 
	C92.338150,228.809250 94.279961,229.492020 95.023254,230.610275 
	C96.583328,232.957321 97.499130,235.732605 99.137268,237.926254 
	C99.521683,236.076004 99.448265,234.631577 99.374847,233.187149 
	C101.542618,224.747726 108.923737,222.256775 115.684700,219.366547 
	C118.727272,218.065872 119.968552,216.701538 119.027023,213.620346 
	C116.402847,214.073639 113.952332,214.496948 110.847191,215.033325 
	C110.621330,214.411057 110.105698,212.990402 109.577431,211.534958 
	C108.672592,212.816132 107.753883,214.116959 106.292633,216.185959 
	C106.195854,214.436890 106.148628,213.583405 106.250938,212.315018 
	C106.360672,211.712219 106.320869,211.524338 106.281075,211.336441 
	C106.134415,211.506409 105.987762,211.676361 105.841103,211.846329 
	C103.895485,212.309723 101.949860,212.773132 98.611832,213.568161 
	C100.161903,211.709457 100.750946,211.003128 101.910332,209.915161 
	C102.919228,207.036560 103.357780,204.539612 103.796333,202.042648 
	C104.653770,201.685989 105.511200,201.329330 106.941055,201.294647 
	C108.677589,201.745071 109.841705,201.873520 111.005821,202.001953 
	C111.179337,201.997223 111.352844,201.992493 112.058548,202.318451 
	C114.702568,202.798050 116.814400,202.946960 119.087746,203.352982 
	C119.991295,204.221024 120.733337,204.831955 121.475372,205.442886 
	C121.729828,205.221985 121.984276,205.001083 122.238724,204.780182 
	C121.601028,203.835190 120.963326,202.890182 119.987434,201.830627 
	C119.426353,201.799652 119.203468,201.883224 118.978333,201.989517 
	C118.976082,202.012253 119.017273,202.030640 119.017273,202.030640 
M133.296219,251.167023 
	C131.528503,253.070648 129.760773,254.974274 127.993050,256.877899 
	C128.420029,257.264740 128.847015,257.651581 129.274002,258.038452 
	C130.627762,256.428040 132.067871,254.879456 133.289032,253.174072 
	C133.723434,252.567383 133.626297,251.580048 133.296219,251.167023 
M120.789894,208.772385 
	C121.675919,208.975037 122.561935,209.177689 123.447952,209.380356 
	C123.465202,208.790024 123.482445,208.199707 123.499695,207.609375 
	C122.468323,207.811768 121.436951,208.014160 120.789894,208.772385 
M117.577629,206.760544 
	C116.490089,206.155411 115.402550,205.550262 114.315018,204.945129 
	C114.148979,205.426300 113.982941,205.907455 113.816902,206.388626 
	C115.049088,206.720718 116.281265,207.052826 117.577629,206.760544 
M107.582443,204.296692 
	C107.365410,204.004623 107.148369,203.712570 106.931343,203.420517 
	C106.745285,203.598328 106.559219,203.776138 106.373146,203.953949 
	C106.655319,204.184021 106.937492,204.414093 107.582443,204.296692 
M99.178085,240.757874 
	C99.121590,240.587250 99.065094,240.416611 99.008598,240.245987 
	C98.953621,240.417587 98.898636,240.589188 99.178085,240.757874 
z"/>
<path fill="#4F4040" opacity="1.000000" stroke="none" 
	d="
M236.413010,285.196899 
	C237.429276,282.206421 238.304550,279.586639 239.114456,277.162506 
	C246.489059,277.261932 246.000458,282.091400 246.762848,287.541107 
	C247.870102,286.539581 249.423950,285.748016 250.009979,284.501434 
	C253.123505,277.878601 255.417206,276.216217 259.183167,278.583008 
	C260.078827,279.145905 261.135254,280.789856 260.906647,281.590912 
	C259.246948,287.406158 257.277039,293.132874 254.923264,300.369446 
	C252.293442,296.956909 250.576263,294.728638 249.084488,292.792847 
	C246.359802,292.792847 243.718689,292.792847 240.775360,292.792847 
	C234.272797,302.359436 232.992264,302.727966 225.046432,296.697632 
	C219.653595,301.482056 214.120880,305.363770 212.744156,313.996399 
	C211.506363,321.757935 207.201004,329.345123 200.253204,334.382965 
	C198.945343,335.331268 196.844147,335.955750 195.378265,335.604858 
	C194.595123,335.417419 193.602936,332.525452 194.048203,331.373047 
	C196.651154,324.636505 199.520935,317.992615 202.575516,311.445709 
	C203.992508,308.408661 206.029999,305.661102 207.786209,302.782318 
	C207.453613,302.491119 207.121002,302.199890 206.788406,301.908691 
	C205.470734,302.663147 204.209595,303.549103 202.823761,304.145081 
	C199.809982,305.441315 196.780106,306.219604 194.166901,303.245483 
	C191.697647,300.435181 191.119919,297.660522 193.432724,294.288757 
	C196.588333,289.688293 199.159164,284.682251 202.376038,280.129364 
	C206.524353,274.258179 212.124405,272.276703 218.204102,274.835968 
	C206.428726,279.145050 203.424255,289.458984 198.116440,300.011597 
	C204.351395,297.989258 208.299179,295.594788 210.399216,290.672302 
	C211.765106,287.470673 213.070404,284.220245 214.758881,281.190094 
	C215.469131,279.915497 217.098038,279.152771 218.309326,278.157318 
	C219.122406,280.117279 220.844818,282.221313 220.561737,284.007568 
	C219.947845,287.881561 218.279785,291.584259 217.113205,295.378662 
	C216.884216,296.123444 216.973007,296.965881 216.879791,298.252533 
	C220.772812,295.916840 223.800827,294.366852 224.419205,289.119843 
	C225.125778,283.124664 228.141434,277.401642 230.925934,271.709351 
	C237.124344,278.867401 231.293106,285.941101 231.018158,292.947418 
	C231.533432,293.140991 232.048691,293.334564 232.563965,293.528107 
	C233.799973,290.874603 235.035995,288.221069 236.413010,285.196899 
z"/>
<path fill="#F36411" opacity="1.000000" stroke="none" 
	d="
M436.558899,174.578049 
	C436.882202,191.049042 436.882202,207.184372 436.882202,223.653214 
	C433.605988,223.653214 430.381775,223.653214 426.857605,223.653214 
	C425.184021,216.441498 423.500366,209.186569 421.816742,201.931641 
	C421.362610,202.009476 420.908478,202.087311 420.454346,202.165146 
	C420.454346,209.274750 420.454346,216.384354 420.454346,223.737030 
	C417.533295,223.737030 414.929077,223.737030 411.888916,223.737030 
	C411.888916,207.376602 411.888916,191.023712 411.888916,174.384079 
	C415.137024,174.384079 418.238281,174.384079 421.846161,174.384079 
	C423.629944,182.319977 425.430603,190.330948 427.231262,198.341919 
	C427.489349,198.318359 427.747467,198.294785 428.005554,198.271225 
	C428.005554,190.459503 428.005554,182.647797 428.005554,174.242401 
	C431.037323,174.242401 433.636475,174.242401 436.558899,174.578049 
z"/>
<path fill="#F3630F" opacity="1.000000" stroke="none" 
	d="
M356.148956,188.010071 
	C356.165955,183.230728 356.165955,178.948730 356.165955,174.398636 
	C359.314056,174.398636 361.910522,174.398636 365.205139,174.398636 
	C365.205139,180.802170 365.205139,187.321136 365.205139,193.840103 
	C365.729065,193.916702 366.252960,193.993301 366.776886,194.069901 
	C367.817963,189.900177 368.907257,185.741791 369.889923,181.558350 
	C371.853088,173.200668 371.828918,173.194992 381.402191,174.688690 
	C379.481720,181.406281 377.415314,188.031082 375.760925,194.757217 
	C375.201538,197.031433 375.198975,199.687485 375.782349,201.952621 
	C377.639648,209.164337 379.892303,216.274200 381.981781,223.388000 
	C381.541534,223.642960 381.283203,223.919342 381.014435,223.929871 
	C371.969635,224.284698 371.982208,224.277924 369.841858,215.461761 
	C368.847076,211.363983 367.791931,207.280838 366.764160,203.191071 
	C366.313965,203.229202 365.863739,203.267334 365.413544,203.305466 
	C365.413544,210.113403 365.413544,216.921326 365.413544,223.844482 
	C362.021606,223.844482 359.392853,223.844482 356.131958,223.844482 
	C356.131958,212.003815 356.131958,200.255615 356.148956,188.010071 
z"/>
<path fill="#F36412" opacity="1.000000" stroke="none" 
	d="
M227.118668,221.635437 
	C227.108963,205.731689 227.108963,190.293259 227.108963,174.682587 
	C232.651917,174.682587 237.914093,174.279633 243.080978,174.808212 
	C247.328476,175.242737 249.958664,178.495224 250.152649,182.674011 
	C250.461136,189.319107 252.303406,196.239777 247.721893,202.394638 
	C247.115707,203.208984 247.443466,204.905075 247.678650,206.127396 
	C248.795685,211.933197 250.030472,217.716309 251.280762,223.786255 
	C248.165543,223.786255 245.553329,223.786255 242.507095,223.786255 
	C241.087585,217.467606 239.663422,211.128159 238.239243,204.788712 
	C237.637451,204.894012 237.035660,204.999298 236.433868,205.104584 
	C236.433868,211.229630 236.433868,217.354675 236.433868,224.911758 
	C232.702896,223.784698 229.915634,222.942719 227.118668,221.635437 
M246.375031,194.739212 
	C246.357040,194.410461 246.339050,194.081726 246.321060,193.752975 
	C246.221802,194.174484 246.122559,194.595993 245.739517,195.101425 
	C245.820923,195.059906 245.902313,195.018387 246.375031,194.739212 
M240.946915,197.167496 
	C241.119675,200.959396 241.292419,204.751297 241.465164,208.543198 
	C241.881378,208.550613 242.297577,208.558029 242.713791,208.565445 
	C243.110962,204.992035 243.644211,201.423431 243.770569,197.840485 
	C243.791489,197.247269 242.033646,196.591339 241.267365,195.175674 
	C241.372284,192.223083 241.608032,189.267792 241.547623,186.318588 
	C241.478577,182.948318 239.695129,181.706757 236.346375,182.625366 
	C236.346375,187.504181 236.346375,192.207016 236.346375,197.479279 
	C238.120682,197.067902 239.496246,196.748978 240.946915,197.167496 
z"/>
<path fill="#F36412" opacity="1.000000" stroke="none" 
	d="
M351.183105,196.036224 
	C351.341431,198.096252 351.499756,200.156265 351.317810,202.658661 
	C351.132050,203.742554 351.286621,204.384079 351.441162,205.025604 
	C351.441193,211.140182 351.441193,217.254761 351.441193,223.676819 
	C348.072693,223.676819 344.842072,223.676819 341.266266,223.676819 
	C339.345581,214.874741 337.426666,206.080856 335.507782,197.286972 
	C335.306610,197.308228 335.105469,197.329498 334.904297,197.350754 
	C334.904297,205.982849 334.904297,214.614929 334.904297,223.615555 
	C332.140289,223.615555 329.422882,223.615555 326.344543,223.615555 
	C326.344543,207.333679 326.344543,190.984421 326.344543,174.704666 
	C326.846832,174.495911 327.131042,174.290909 327.430206,174.266113 
	C336.239929,173.536255 336.243713,173.538300 338.101166,181.987427 
	C339.063995,186.367142 340.011658,190.750168 340.969482,195.901627 
	C341.231537,197.612228 341.490234,198.552917 341.748962,199.493607 
	C342.071075,199.444458 342.393188,199.395294 342.715302,199.346130 
	C342.715302,198.168289 342.715302,196.990448 342.715302,195.812607 
	C342.732361,195.354904 342.749390,194.897202 343.112305,194.232910 
	C344.280060,194.672592 345.101929,195.318848 346.361389,195.978699 
	C348.260315,196.006927 349.721710,196.021576 351.183105,196.036224 
z"/>
<path fill="#F36412" opacity="1.000000" stroke="none" 
	d="
M386.593018,192.424316 
	C387.390350,186.215302 388.104156,180.446899 388.850555,174.415253 
	C393.529785,174.415253 397.921570,174.415253 402.741669,174.415253 
	C404.715973,190.854645 406.670288,207.127472 408.666107,223.746124 
	C405.230286,223.746124 402.327148,223.746124 399.240173,223.746124 
	C398.803650,219.939896 398.389832,216.331696 397.936035,212.375046 
	C396.424194,212.375046 394.888824,212.375046 393.101471,212.375046 
	C392.693329,216.057693 392.293243,219.667908 391.852081,223.648590 
	C388.997711,223.648590 386.141022,223.648590 382.847229,223.648590 
	C384.082123,213.268814 385.295837,203.066879 386.593018,192.424316 
M395.510651,204.598282 
	C396.084473,203.798462 397.185394,202.973602 397.148804,202.202759 
	C396.852875,195.969055 396.343262,189.745483 395.898865,183.518829 
	C395.480743,183.522736 395.062653,183.526627 394.644531,183.530533 
	C394.644531,190.514175 394.644531,197.497818 395.510651,204.598282 
z"/>
<path fill="#F36412" opacity="1.000000" stroke="none" 
	d="
M305.439758,174.173126 
	C309.517731,174.165802 313.147217,174.165802 317.190155,174.165802 
	C319.200836,190.753235 321.173889,207.030258 323.194031,223.695831 
	C319.874359,223.695831 316.970490,223.695831 313.668243,223.695831 
	C313.296173,219.955719 312.923309,216.207809 312.530426,212.258636 
	C310.878021,212.258636 309.441833,212.258636 307.470032,212.258636 
	C307.152863,215.977676 306.835663,219.697449 306.493958,223.704224 
	C303.307098,223.704224 300.429626,223.704224 297.297302,223.704224 
	C299.219788,207.977524 301.081146,192.498474 303.072540,177.036194 
	C303.203583,176.018784 304.328613,175.129395 305.439758,174.173126 
M309.011932,191.796341 
	C308.732056,195.112045 308.230316,198.432327 308.298889,201.740814 
	C308.321320,202.824203 309.825775,203.876846 310.652527,204.943558 
	C311.131653,204.604996 311.610779,204.266434 312.089905,203.927887 
	C311.604797,199.029053 311.119690,194.130219 310.634583,189.231384 
	C310.282135,189.234741 309.929688,189.238083 309.577240,189.241425 
	C309.401672,189.807556 309.226135,190.373688 309.011932,191.796341 
z"/>
<path fill="#F3630F" opacity="1.000000" stroke="none" 
	d="
M214.018005,184.377426 
	C213.032288,183.265366 212.066528,182.595764 211.100769,181.926163 
	C210.433945,182.945969 209.360214,183.896820 209.173599,184.998001 
	C208.509048,188.919159 209.446915,192.358704 213.380753,194.182434 
	C222.487183,198.404175 224.213806,205.961227 223.112518,214.970917 
	C222.383255,220.937012 217.831161,224.914215 211.406250,224.903381 
	C205.347229,224.893158 200.637390,220.894287 200.119217,215.080368 
	C199.884766,212.449707 200.079453,209.780823 200.079453,206.865143 
	C203.018356,206.865143 205.784927,206.865143 208.997940,206.865143 
	C208.997940,209.099930 208.704422,211.276337 209.112930,213.311890 
	C209.341721,214.451935 210.733658,215.358551 211.601532,216.370346 
	C212.434799,215.368210 213.813736,214.460297 214.005859,213.347488 
	C214.792236,208.792603 213.991776,204.904236 209.179306,202.581757 
	C201.083954,198.675003 199.099869,191.728760 200.152237,183.365967 
	C200.961227,176.937241 205.439362,173.159653 212.238083,173.431000 
	C218.697281,173.688797 222.795090,177.735779 222.991699,184.110703 
	C223.056931,186.225723 223.001999,188.344452 223.001999,190.664841 
	C219.961243,190.664841 217.359039,190.664841 214.037964,190.664841 
	C214.037964,188.650986 214.037964,186.735428 214.018005,184.377426 
z"/>
<path fill="#FBC80C" opacity="1.000000" stroke="none" 
	d="
M69.799835,304.121368 
	C75.087875,304.221161 80.481705,304.380768 85.803772,305.083740 
	C99.789604,306.931213 113.745308,309.007507 127.707314,311.031921 
	C128.288208,311.116150 128.811691,311.596375 129.268326,312.272522 
	C118.085037,315.352692 107.054039,318.352997 95.863838,320.537964 
	C93.113159,321.075043 89.796928,319.082855 86.821106,318.026855 
	C79.614792,315.469635 72.511482,312.709778 69.799835,304.121368 
z"/>
<path fill="#4E3E3E" opacity="1.000000" stroke="none" 
	d="
M296.218353,259.621704 
	C294.694305,265.507996 293.100708,271.052612 291.421570,276.571167 
	C290.424530,279.847900 289.292664,283.083557 288.074860,286.782806 
	C290.854614,287.184998 292.849670,287.473633 294.844757,287.762268 
	C295.052460,288.248169 295.260193,288.734070 295.467896,289.219971 
	C293.724518,290.166962 291.790924,292.120819 290.280365,291.835480 
	C287.730408,291.353668 285.448425,289.453552 282.729736,287.973419 
	C280.759399,289.811188 278.203156,292.734680 275.101776,294.864380 
	C273.512512,295.955719 270.440521,296.529053 268.963318,295.696289 
	C267.380219,294.803864 265.816681,291.817871 266.095093,290.034424 
	C267.378235,281.814423 272.548248,275.613373 278.418793,270.198975 
	C279.839294,268.888824 283.003326,269.469025 286.236450,269.073395 
	C286.685120,267.499786 287.523346,265.025330 288.087799,262.489929 
	C289.567322,255.844040 290.290375,255.522659 296.218353,259.621704 
M283.833313,278.351959 
	C283.833313,277.475708 283.833313,276.599457 283.833313,275.723206 
	C283.444458,275.531158 283.055573,275.339142 282.666718,275.147095 
	C278.902588,280.130219 275.138458,285.113342 271.374329,290.096466 
	C271.979431,290.593201 272.584534,291.089905 273.189636,291.586639 
	C276.649780,287.393036 280.109924,283.199432 283.833313,278.351959 
z"/>
<path fill="#4E3E3E" opacity="1.000000" stroke="none" 
	d="
M303.874847,284.933960 
	C306.968140,285.019867 309.850342,285.528534 312.292999,284.715881 
	C314.801758,283.881348 316.881042,281.756012 319.667145,279.838470 
	C320.616272,285.183319 317.355713,287.415436 314.434265,289.606781 
	C311.067139,292.132477 307.331818,293.141541 303.287537,290.906372 
	C295.353210,286.521240 293.274506,277.572327 298.501648,270.172577 
	C303.725220,262.777893 306.896118,261.148682 313.433960,263.852325 
	C315.828400,264.842499 318.794312,267.565460 319.038757,269.770691 
	C319.286774,272.008484 316.988129,275.220154 314.898926,276.828735 
	C312.854126,278.403107 309.682861,279.036987 306.978149,279.114777 
	C302.414001,279.246002 301.928131,281.210663 303.874847,284.933960 
M310.270325,269.030548 
	C306.361786,269.937408 305.118439,272.917725 303.862640,275.888367 
	C304.390808,276.285156 304.918945,276.681915 305.447113,277.078705 
	C307.230255,274.568909 309.013367,272.059143 310.270325,269.030548 
z"/>
<path fill="#F36411" opacity="1.000000" stroke="none" 
	d="
M258.988312,224.019333 
	C257.288544,223.176682 254.994965,222.348328 254.983032,221.488327 
	C254.766830,205.905289 254.825424,190.318451 254.825424,174.414139 
	C257.922913,174.414139 260.633392,174.414139 263.621338,174.414139 
	C263.621338,190.775650 263.621338,206.992249 263.621338,223.652664 
	C262.292542,223.769501 260.874512,223.894196 258.988312,224.019333 
z"/>
<path fill="#FAC814" opacity="1.000000" stroke="none" 
	d="
M155.951660,254.542160 
	C158.752945,252.442795 161.607040,250.828217 164.331360,249.018280 
	C165.100662,248.507202 165.490189,247.424438 166.038040,246.271454 
	C169.643875,248.589645 167.311951,250.315536 164.709717,252.256561 
	C169.872604,255.102402 169.427414,259.862701 168.622406,264.357330 
	C167.431076,271.009003 165.682983,277.561005 163.982758,284.454468 
	C159.710571,284.140656 155.627579,283.527771 151.650574,282.562378 
	C151.944290,281.906708 152.132019,281.603577 152.319763,281.300476 
	C151.872635,281.522766 151.425507,281.745056 150.978378,281.967346 
	C149.579254,282.302917 148.180145,282.638458 146.618546,283.012970 
	C148.357239,277.199829 149.256088,276.894623 158.336075,278.873840 
	C161.171570,273.709076 162.502991,268.777344 158.446152,263.261688 
	C156.832748,261.068115 156.740234,257.755890 155.951660,254.542160 
z"/>
<path fill="#F25F0A" opacity="1.000000" stroke="none" 
	d="
M279.424866,212.979767 
	C279.424866,200.267197 279.424866,187.554626 279.424866,174.525818 
	C282.235474,174.525818 284.802124,174.525818 288.154907,174.525818 
	C288.154907,184.681473 288.154907,194.876266 287.750732,205.431610 
	C286.155884,206.495697 284.621887,206.941757 283.855499,207.963531 
	C282.728302,209.466354 282.148926,211.380096 281.018494,213.084366 
	C280.275513,213.026535 279.850189,213.003143 279.424866,212.979767 
z"/>
<path fill="#F36D1F" opacity="1.000000" stroke="none" 
	d="
M351.377075,195.675186 
	C349.721710,196.021576 348.260315,196.006927 346.364014,195.663101 
	C344.868866,194.662445 343.808624,193.990967 342.748413,193.319504 
	C342.748413,187.178650 342.748413,181.037796 342.748413,174.497101 
	C345.704742,174.497101 348.418152,174.497101 351.571045,174.497101 
	C351.571045,181.442505 351.571045,188.378342 351.377075,195.675186 
z"/>
<path fill="#FAC814" opacity="1.000000" stroke="none" 
	d="
M114.843140,141.484528 
	C113.760757,141.575836 112.709923,141.314819 110.985077,141.025848 
	C105.826981,136.314133 100.472404,133.474426 93.885971,133.244247 
	C91.949966,131.465637 90.013962,129.687027 88.063065,127.196991 
	C88.024956,125.981445 88.001732,125.477333 87.978508,124.973221 
	C87.978508,124.973221 88.001923,124.995239 88.243118,124.943382 
	C88.741180,124.666763 88.998055,124.442001 89.254929,124.217239 
	C89.254929,124.217247 89.687584,124.051620 90.313339,124.056885 
	C92.510750,124.081337 94.082397,124.100517 95.654045,124.119690 
	C95.879372,124.119377 96.104706,124.119057 96.813828,124.490952 
	C96.853226,126.566277 96.408852,128.269379 95.713898,130.079620 
	C95.190773,130.554504 94.918221,130.922241 94.645668,131.289993 
	C94.864639,131.409103 95.083611,131.528214 95.302582,131.647324 
	C95.545799,131.108994 95.789024,130.570679 96.404343,129.984818 
	C97.797966,129.254501 99.591805,128.681000 99.706573,127.869919 
	C100.188927,124.461098 102.544655,125.050148 104.719681,125.040886 
	C104.719681,125.040886 104.916901,125.068825 104.876289,125.427094 
	C103.928711,126.356506 103.021751,126.927643 102.114784,127.498779 
	C103.328720,128.348160 104.542648,129.197540 105.756584,130.046921 
	C108.008713,132.416229 110.340302,134.716736 112.477768,137.185318 
	C113.471169,138.332611 114.087448,139.806427 114.843140,141.484528 
z"/>
<path fill="#A83744" opacity="1.000000" stroke="none" 
	d="
M152.870743,218.264709 
	C150.477371,218.889114 148.191147,219.171860 146.215210,219.416245 
	C142.909119,215.065948 144.796570,210.960587 146.446838,206.938675 
	C148.606705,201.674881 145.269531,199.146149 141.472885,196.420151 
	C143.943115,197.522888 146.548996,200.529755 150.537613,196.127991 
	C151.338287,201.038528 152.250992,205.934555 152.890366,210.866013 
	C153.190796,213.183182 152.965134,215.568588 152.870743,218.264709 
z"/>
<path fill="#F36412" opacity="1.000000" stroke="none" 
	d="
M279.321716,213.431671 
	C279.850189,213.003143 280.275513,213.026535 281.029175,213.382629 
	C281.837250,215.054352 282.316925,216.393356 282.682373,217.413406 
	C284.870209,216.842087 287.030640,216.277908 289.191101,215.713745 
	C291.156860,215.713745 293.122650,215.713745 295.491882,215.713745 
	C295.491882,218.439499 295.491882,220.811157 295.491882,223.606598 
	C290.361603,223.606598 285.048340,223.606598 279.218597,223.606598 
	C279.218597,220.374054 279.218597,217.128830 279.321716,213.431671 
z"/>
<path fill="#FEEEE4" opacity="1.000000" stroke="none" 
	d="
M93.744240,133.523315 
	C100.472404,133.474426 105.826981,136.314133 110.653900,141.085678 
	C107.856819,142.949982 104.739098,145.369446 102.273193,140.137146 
	C101.904137,139.354065 99.939980,139.322739 98.310486,138.958984 
	C96.472343,137.250336 95.037430,135.526367 93.744240,133.523315 
z"/>
<path fill="#4F4040" opacity="1.000000" stroke="none" 
	d="
M258.984131,260.373505 
	C263.520050,259.410675 265.437347,262.434998 266.300659,265.712189 
	C266.610596,266.888824 264.493530,268.950348 263.087372,270.138458 
	C262.785034,270.393921 260.074402,268.858704 259.691010,267.733398 
	C258.943268,265.538788 259.056213,263.050964 258.984131,260.373505 
z"/>
<path fill="#F9B48D" opacity="1.000000" stroke="none" 
	d="
M289.111389,215.292145 
	C287.030640,216.277908 284.870209,216.842087 282.682373,217.413406 
	C282.316925,216.393356 281.837250,215.054352 281.346863,213.417068 
	C282.148926,211.380096 282.728302,209.466354 283.855499,207.963531 
	C284.621887,206.941757 286.155884,206.495697 287.647919,205.889832 
	C288.310059,208.948502 288.670837,211.909515 289.111389,215.292145 
z"/>
<path fill="#FEEEE4" opacity="1.000000" stroke="none" 
	d="
M70.757446,199.013275 
	C70.746536,203.483154 70.454826,207.942490 70.073448,213.772552 
	C68.832176,211.986191 67.056137,210.593292 67.139206,209.321854 
	C67.350281,206.091583 68.393715,202.915710 69.228851,199.343811 
	C69.728065,198.980606 70.102364,198.991653 70.757446,199.013275 
z"/>
<path fill="#F68F54" opacity="1.000000" stroke="none" 
	d="
M87.596512,124.992111 
	C88.001732,125.477333 88.024956,125.981445 88.021515,126.865402 
	C86.990891,128.607285 85.986931,129.969330 84.536476,131.937119 
	C83.891380,130.470383 82.506264,128.589249 82.923172,128.013885 
	C83.891258,126.677887 85.729172,125.972183 87.596512,124.992111 
z"/>
<path fill="#F1BC2A" opacity="1.000000" stroke="none" 
	d="
M95.964478,129.972473 
	C96.408852,128.269379 96.853226,126.566277 97.140640,124.577194 
	C99.418831,124.329643 101.853981,124.368073 104.504410,124.723694 
	C102.544655,125.050148 100.188927,124.461098 99.706573,127.869919 
	C99.591805,128.681000 97.797966,129.254501 96.388092,129.969086 
	C95.999748,130.000870 95.964478,129.972473 95.964478,129.972473 
z"/>
<path fill="#F1BC2A" opacity="1.000000" stroke="none" 
	d="
M105.842789,129.674942 
	C104.542648,129.197540 103.328720,128.348160 102.114784,127.498779 
	C103.021751,126.927643 103.928711,126.356506 104.902840,125.523087 
	C105.289665,126.608192 105.609329,127.955582 105.842789,129.674942 
z"/>
<path fill="#F9B48D" opacity="1.000000" stroke="none" 
	d="
M342.441772,195.865692 
	C342.715302,196.990448 342.715302,198.168289 342.715302,199.346130 
	C342.393188,199.395294 342.071075,199.444458 341.748962,199.493607 
	C341.490234,198.552917 341.231537,197.612228 341.024902,196.305023 
	C341.440735,195.931931 341.804504,195.925339 342.441772,195.865692 
z"/>
<path fill="#F9B48D" opacity="1.000000" stroke="none" 
	d="
M342.696655,193.436890 
	C343.808624,193.990967 344.868866,194.662445 345.926453,195.649521 
	C345.101929,195.318848 344.280060,194.672592 343.132324,193.889938 
	C342.806519,193.753555 342.644897,193.554276 342.696655,193.436890 
z"/>
<path fill="#F1BC2A" opacity="1.000000" stroke="none" 
	d="
M95.437302,123.866035 
	C94.082397,124.100517 92.510750,124.081337 90.544861,124.049385 
	C91.840591,123.895203 93.530571,123.753792 95.437302,123.866035 
z"/>
<path fill="#F36D1F" opacity="1.000000" stroke="none" 
	d="
M351.561218,204.690948 
	C351.286621,204.384079 351.132050,203.742554 351.212006,203.037842 
	C351.524750,203.435196 351.602997,203.895752 351.561218,204.690948 
z"/>
<path fill="#F68F54" opacity="1.000000" stroke="none" 
	d="
M88.963211,124.186111 
	C88.998055,124.442001 88.741180,124.666763 88.229790,124.937523 
	C88.207352,124.707344 88.439423,124.431168 88.963211,124.186111 
z"/>
<path fill="#FAC814" opacity="1.000000" stroke="none" 
	d="
M73.714890,232.099152 
	C73.534294,230.273788 73.353699,228.448425 73.146461,226.353790 
	C74.204285,226.163483 75.297028,225.966873 75.627640,225.907394 
	C74.300476,224.340988 71.794945,222.653107 71.271729,220.486496 
	C70.349121,216.666061 73.501175,217.007935 76.353020,217.084442 
	C76.531403,218.697815 76.686020,220.096161 76.840637,221.494522 
	C82.350258,204.739227 84.766487,187.179047 93.820274,171.595215 
	C91.193207,188.598587 88.566139,205.601974 85.855804,223.144318 
	C87.815941,221.889191 89.085526,221.076248 90.355103,220.263306 
	C90.934982,221.192551 92.198792,222.703125 91.983482,222.956451 
	C90.608650,224.573822 88.908371,225.914536 86.859543,227.755798 
	C86.859543,227.860474 86.859543,228.909225 86.162659,229.997528 
	C83.904549,230.037064 82.343315,230.037064 80.782089,230.037064 
	C80.794106,230.556107 80.806122,231.075134 80.818146,231.594177 
	C82.498413,231.745697 84.178688,231.897232 85.858963,232.048752 
	C85.937386,232.196060 86.015800,232.343353 85.631851,232.787247 
	C81.781845,233.062592 78.394196,233.041336 75.000809,233.014221 
	C74.995056,233.008377 74.978859,233.005829 74.844162,232.764664 
	C74.377945,232.382050 74.046417,232.240601 73.714890,232.099152 
M77.588326,230.314270 
	C77.363235,230.017944 77.138145,229.721619 76.913048,229.425293 
	C76.724602,229.602066 76.536156,229.778854 76.347710,229.955643 
	C76.637421,230.190964 76.927124,230.426300 77.588326,230.314270 
z"/>
<path fill="#FDCB08" opacity="1.000000" stroke="none" 
	d="
M84.989723,242.189301 
	C85.432350,242.141830 85.874969,242.094376 86.647995,242.428802 
	C86.650810,243.825027 86.323235,244.839355 85.995651,245.853683 
	C84.541031,246.012756 83.086418,246.171829 81.322815,246.989471 
	C81.036728,248.500381 81.059639,249.352707 81.082550,250.205048 
	C81.082542,250.205048 81.067581,250.624832 80.772659,250.966629 
	C80.607910,251.872650 80.738068,252.436890 80.868233,253.001114 
	C81.357742,253.334793 81.847244,253.668472 82.920212,253.799011 
	C83.690933,252.728058 83.878204,251.860229 84.065475,250.992401 
	C87.436981,251.269913 88.998169,252.515656 85.897514,255.910156 
	C84.009407,256.012268 82.885300,256.050415 81.761192,256.088562 
	C81.024590,256.254242 80.287987,256.419922 79.261909,256.650726 
	C79.968704,257.666901 80.541382,258.490265 80.692398,259.647156 
	C79.542007,260.427185 78.813286,260.873688 78.084557,261.320160 
	C74.942505,264.306885 75.282417,259.224884 72.018768,260.086823 
	C73.973999,258.484283 74.717842,257.874634 75.988846,256.920593 
	C75.635185,256.068817 74.754364,255.561386 73.873550,255.053970 
	C73.873550,255.053970 73.439514,255.094376 73.389313,254.779938 
	C73.884682,253.995087 74.430244,253.524704 74.975815,253.054321 
	C75.184868,252.795029 75.393921,252.535751 76.031586,252.002274 
	C76.364578,251.157806 76.268959,250.587524 76.173340,250.017242 
	C76.131813,249.565323 76.090286,249.113419 76.313400,248.189972 
	C76.807419,247.478226 76.928902,247.192184 76.942482,246.860291 
	C76.942482,246.860291 76.966362,246.456375 77.135201,246.025208 
	C76.217705,245.389175 75.131363,245.184296 74.045029,244.979416 
	C72.820442,243.949585 71.595856,242.919754 70.371269,241.889938 
	C71.318077,241.247025 72.264885,240.604095 73.735275,240.241531 
	C74.716301,241.779434 75.173744,243.036987 75.631187,244.294525 
	C76.432243,243.398148 77.233307,242.501755 78.034363,241.605362 
	C76.662109,240.762192 75.289856,239.919006 73.917603,239.075836 
	C73.917603,239.075836 74.000542,239.010254 73.985214,238.710648 
	C73.981468,237.971420 73.993057,237.531784 74.004639,237.092163 
	C73.853020,235.864731 73.701408,234.637283 74.016701,233.226700 
	C74.483612,233.043549 74.978859,233.005829 74.978859,233.005829 
	C74.978859,233.005829 74.995056,233.008377 75.227737,233.315109 
	C78.862572,234.097504 82.264725,234.573151 85.666878,235.048813 
	C85.374458,237.715607 85.391891,240.580246 81.784103,241.130325 
	C82.211426,241.721344 82.638756,242.312347 83.641815,242.872070 
	C84.474953,242.623642 84.732338,242.406479 84.989723,242.189301 
z"/>
<path fill="#FAC814" opacity="1.000000" stroke="none" 
	d="
M74.672012,253.010284 
	C74.430244,253.524704 73.884682,253.995087 73.188049,254.696274 
	C72.099091,254.720963 70.800972,254.819382 70.308426,254.236771 
	C69.584610,253.380615 68.888428,251.848511 69.197189,250.956161 
	C69.503838,250.069977 71.068153,249.618973 72.080925,248.977127 
	C72.843353,250.306824 73.605789,251.636536 74.672012,253.010284 
z"/>
<path fill="#F1BC2A" opacity="1.000000" stroke="none" 
	d="
M85.702057,234.699493 
	C82.264725,234.573151 78.862572,234.097504 75.233490,233.320953 
	C78.394196,233.041336 81.781845,233.062592 85.544220,233.021698 
	C85.858383,233.423080 85.797813,233.886627 85.702057,234.699493 
z"/>
<path fill="#FAC814" opacity="1.000000" stroke="none" 
	d="
M86.259590,245.926422 
	C86.323235,244.839355 86.650810,243.825027 86.978928,242.484802 
	C87.322861,241.660324 87.666252,241.161728 88.047089,240.337250 
	C87.974525,241.983017 87.864494,243.954697 87.401329,246.041138 
	C86.873299,246.103653 86.698418,246.051407 86.259590,245.926422 
z"/>
<path fill="#FAC814" opacity="1.000000" stroke="none" 
	d="
M73.928177,239.321228 
	C75.289856,239.919006 76.662109,240.762192 78.034363,241.605362 
	C77.233307,242.501755 76.432243,243.398148 75.631187,244.294525 
	C75.173744,243.036987 74.716301,241.779434 74.093140,240.289825 
	C73.927429,240.057770 73.938744,239.566635 73.928177,239.321228 
z"/>
<path fill="#F1BC2A" opacity="1.000000" stroke="none" 
	d="
M85.882523,231.717285 
	C84.178688,231.897232 82.498413,231.745697 80.818146,231.594177 
	C80.806122,231.075134 80.794106,230.556107 80.782089,230.037064 
	C82.343315,230.037064 83.904549,230.037064 85.888954,230.079803 
	C86.176788,230.543655 86.041435,230.964737 85.882523,231.717285 
z"/>
<path fill="#FAC814" opacity="1.000000" stroke="none" 
	d="
M103.650772,202.395782 
	C103.357780,204.539612 102.919228,207.036560 102.173538,209.755081 
	C102.412666,207.567398 102.958931,205.158173 103.650772,202.395782 
z"/>
<path fill="#F1BC2A" opacity="1.000000" stroke="none" 
	d="
M126.234764,260.666199 
	C126.226891,259.936096 126.660049,258.933502 126.978386,258.968719 
	C128.761139,259.165985 130.516174,259.613831 132.685822,260.000488 
	C130.934921,260.307526 128.778839,260.590210 126.234764,260.666199 
z"/>
<path fill="#FAC814" opacity="1.000000" stroke="none" 
	d="
M118.926231,203.095886 
	C116.814400,202.946960 114.702568,202.798050 112.309601,202.387512 
	C114.070580,202.146927 116.112709,202.167984 118.586052,202.109833 
	C119.017273,202.030640 118.976082,202.012253 118.936592,202.239655 
	C118.942329,202.629944 118.987564,202.792847 119.005913,202.990601 
	C118.979019,203.025436 118.926231,203.095886 118.926231,203.095886 
z"/>
<path fill="#FDCC0C" opacity="1.000000" stroke="none" 
	d="
M99.244675,233.565155 
	C99.448265,234.631577 99.521683,236.076004 99.353477,237.744476 
	C99.112740,236.626724 99.113625,235.284958 99.244675,233.565155 
z"/>
<path fill="#FAC814" opacity="1.000000" stroke="none" 
	d="
M74.284111,245.196457 
	C75.131363,245.184296 76.217705,245.389175 77.163284,245.824860 
	C76.189407,245.841614 75.356300,245.627563 74.284111,245.196457 
z"/>
<path fill="#FAC814" opacity="1.000000" stroke="none" 
	d="
M110.737793,201.776215 
	C109.841705,201.873520 108.677589,201.745071 107.268814,201.365173 
	C108.172691,201.259308 109.321228,201.404877 110.737793,201.776215 
z"/>
<path fill="#FAC814" opacity="1.000000" stroke="none" 
	d="
M82.035500,256.278015 
	C82.885300,256.050415 84.009407,256.012268 85.552406,255.981201 
	C84.750801,256.148010 83.530304,256.307770 82.035500,256.278015 
z"/>
<path fill="#FAC814" opacity="1.000000" stroke="none" 
	d="
M74.105812,255.245972 
	C74.754364,255.561386 75.635185,256.068817 76.274597,256.767334 
	C75.468155,256.451630 74.903114,255.944809 74.105812,255.245972 
z"/>
<path fill="#FBC80C" opacity="1.000000" stroke="none" 
	d="
M73.711723,237.083862 
	C73.993057,237.531784 73.981468,237.971420 73.943161,238.739990 
	C73.437843,238.721298 72.959244,238.373627 72.480644,238.025955 
	C72.793365,237.709152 73.106087,237.392365 73.711723,237.083862 
z"/>
<path fill="#FAC814" opacity="1.000000" stroke="none" 
	d="
M83.745750,251.131638 
	C83.878204,251.860229 83.690933,252.728058 83.226334,253.785217 
	C83.108009,253.073318 83.267021,252.172089 83.745750,251.131638 
z"/>
<path fill="#FDCC0C" opacity="1.000000" stroke="none" 
	d="
M88.682030,232.087112 
	C88.828804,232.752304 88.716057,233.635605 88.354431,234.745789 
	C88.211205,234.083511 88.316864,233.194366 88.682030,232.087112 
z"/>
<path fill="#FDCC0C" opacity="1.000000" stroke="none" 
	d="
M99.918037,256.364380 
	C100.550133,256.091156 101.419060,256.058624 102.721024,256.052887 
	C102.154343,256.254822 101.154602,256.429962 99.918037,256.364380 
z"/>
<path fill="#FAC814" opacity="1.000000" stroke="none" 
	d="
M78.402946,261.199707 
	C78.813286,260.873688 79.542007,260.427185 80.627296,259.965149 
	C80.229683,260.326141 79.475510,260.702728 78.402946,261.199707 
z"/>
<path fill="#FAC814" opacity="1.000000" stroke="none" 
	d="
M81.323280,249.984039 
	C81.059639,249.352707 81.036728,248.500381 81.045578,247.221313 
	C81.239563,247.784088 81.401787,248.773560 81.323280,249.984039 
z"/>
<path fill="#FDCC0C" opacity="1.000000" stroke="none" 
	d="
M105.051521,249.950058 
	C105.605438,250.207748 106.159355,250.465439 106.804459,251.027817 
	C106.485252,251.239700 106.074844,251.146912 105.348953,251.048676 
	C105.019661,250.876663 105.005867,250.710098 104.997757,250.270142 
	C105.003448,249.996719 105.051521,249.950058 105.051521,249.950058 
z"/>
<path fill="#FDCC0C" opacity="1.000000" stroke="none" 
	d="
M89.388535,249.737183 
	C89.520645,249.427780 89.891655,249.220016 90.485367,248.998871 
	C90.347847,249.269928 89.987633,249.554382 89.388535,249.737183 
z"/>
<path fill="#FAC814" opacity="1.000000" stroke="none" 
	d="
M80.909767,252.669769 
	C80.738068,252.436890 80.607910,251.872650 80.685165,251.157547 
	C80.912163,251.450577 80.931732,251.894501 80.909767,252.669769 
z"/>
<path fill="#FAC814" opacity="1.000000" stroke="none" 
	d="
M76.111343,250.342621 
	C76.268959,250.587524 76.364578,251.157806 76.238167,251.859665 
	C76.027206,251.550156 76.038269,251.109085 76.111343,250.342621 
z"/>
<path fill="#F1BC2A" opacity="1.000000" stroke="none" 
	d="
M74.844162,232.764664 
	C74.978859,233.005829 74.483612,233.043549 74.235367,233.034180 
	C73.987129,233.024826 73.853096,232.561661 73.783997,232.330414 
	C74.046417,232.240601 74.377945,232.382050 74.844162,232.764664 
z"/>
<path fill="#FAC814" opacity="1.000000" stroke="none" 
	d="
M76.717407,246.974182 
	C76.928902,247.192184 76.807419,247.478226 76.384361,247.855469 
	C76.291229,247.691025 76.391785,247.389557 76.717407,246.974182 
z"/>
<path fill="#FAC814" opacity="1.000000" stroke="none" 
	d="
M84.723175,242.185577 
	C84.732338,242.406479 84.474953,242.623642 83.960175,242.871704 
	C83.954071,242.662338 84.205345,242.422104 84.723175,242.185577 
z"/>
<path fill="#FDCC0C" opacity="1.000000" stroke="none" 
	d="
M104.979492,250.020111 
	C102.959991,247.790924 100.964455,245.538345 98.968910,243.285751 
	C99.512474,242.880768 100.056030,242.475769 100.599586,242.070786 
	C102.070023,244.456070 103.540459,246.841354 105.031204,249.588348 
	C105.051521,249.950058 105.003448,249.996719 104.979492,250.020111 
z"/>
<path fill="#F1BC2A" opacity="1.000000" stroke="none" 
	d="
M133.534027,250.966751 
	C133.626297,251.580048 133.723434,252.567383 133.289032,253.174072 
	C132.067871,254.879456 130.627762,256.428040 129.274002,258.038452 
	C128.847015,257.651581 128.420029,257.264740 127.993050,256.877899 
	C129.760773,254.974274 131.528503,253.070648 133.534027,250.966751 
z"/>
<path fill="#FAC814" opacity="1.000000" stroke="none" 
	d="
M120.597733,208.494476 
	C121.436951,208.014160 122.468323,207.811768 123.499695,207.609375 
	C123.482445,208.199707 123.465202,208.790024 123.447952,209.380356 
	C122.561935,209.177689 121.675919,208.975037 120.597733,208.494476 
z"/>
<path fill="#FAC814" opacity="1.000000" stroke="none" 
	d="
M117.545540,207.072739 
	C116.281265,207.052826 115.049088,206.720718 113.816902,206.388626 
	C113.982941,205.907455 114.148979,205.426300 114.315018,204.945129 
	C115.402550,205.550262 116.490089,206.155411 117.545540,207.072739 
z"/>
<path fill="#FAC814" opacity="1.000000" stroke="none" 
	d="
M120.325623,201.945190 
	C120.963326,202.890182 121.601028,203.835190 122.238724,204.780182 
	C121.984276,205.001083 121.729828,205.221985 121.475372,205.442886 
	C120.733337,204.831955 119.991295,204.221024 119.087746,203.352997 
	C118.926231,203.095886 118.979019,203.025436 119.291641,202.917053 
	C119.844711,202.520844 120.085167,202.233017 120.325623,201.945190 
z"/>
<path fill="#FAC814" opacity="1.000000" stroke="none" 
	d="
M107.401062,204.470428 
	C106.937492,204.414093 106.655319,204.184021 106.373154,203.953949 
	C106.559219,203.776138 106.745285,203.598328 106.931335,203.420502 
	C107.148369,203.712570 107.365410,204.004623 107.401062,204.470428 
z"/>
<path fill="#FDCC0C" opacity="1.000000" stroke="none" 
	d="
M99.010864,240.759338 
	C98.898636,240.589188 98.953621,240.417587 99.008598,240.245987 
	C99.065094,240.416611 99.121590,240.587250 99.010864,240.759338 
z"/>
<path fill="#9E223F" opacity="1.000000" stroke="none" 
	d="
M105.891708,211.894379 
	C105.987762,211.676361 106.134415,211.506409 106.281075,211.336441 
	C106.320869,211.524338 106.360672,211.712219 106.222687,211.968567 
	C106.044907,212.037033 105.942322,211.942413 105.891708,211.894379 
z"/>
<path fill="#9E223F" opacity="1.000000" stroke="none" 
	d="
M119.987434,201.830627 
	C120.085167,202.233017 119.844711,202.520844 119.318527,202.882202 
	C118.987564,202.792847 118.942329,202.629944 118.938843,202.216919 
	C119.203468,201.883224 119.426353,201.799652 119.987434,201.830627 
z"/>
<path fill="#FEEEE4" opacity="1.000000" stroke="none" 
	d="
M240.871811,196.430038 
	C239.496246,196.748978 238.120682,197.067902 236.346375,197.479279 
	C236.346375,192.207016 236.346375,187.504181 236.346375,182.625366 
	C239.695129,181.706757 241.478577,182.948318 241.547623,186.318588 
	C241.608032,189.267792 241.372284,192.223083 241.068573,195.658539 
	C240.869797,196.141388 240.871811,196.430038 240.871811,196.430038 
z"/>
<path fill="#F68F54" opacity="1.000000" stroke="none" 
	d="
M240.909363,196.798767 
	C240.871811,196.430038 240.869797,196.141388 240.983810,196.052887 
	C242.033646,196.591339 243.791489,197.247269 243.770569,197.840485 
	C243.644211,201.423431 243.110962,204.992035 242.713791,208.565445 
	C242.297577,208.558029 241.881378,208.550613 241.465164,208.543198 
	C241.292419,204.751297 241.119675,200.959396 240.909363,196.798767 
z"/>
<path fill="#F68F54" opacity="1.000000" stroke="none" 
	d="
M246.023300,195.017502 
	C246.122559,194.595993 246.221802,194.174484 246.321060,193.752975 
	C246.339050,194.081726 246.357040,194.410461 246.187927,194.869476 
	C246.000839,194.999725 246.023300,195.017502 246.023300,195.017502 
z"/>
<path fill="#F68F54" opacity="1.000000" stroke="none" 
	d="
M245.992279,194.988297 
	C245.902313,195.018387 245.820923,195.059906 245.881409,195.059464 
	C246.023300,195.017502 246.000839,194.999725 245.992279,194.988297 
z"/>
<path fill="#FEEEE4" opacity="1.000000" stroke="none" 
	d="
M395.077576,204.539871 
	C394.644531,197.497818 394.644531,190.514175 394.644531,183.530533 
	C395.062653,183.526627 395.480743,183.522736 395.898865,183.518829 
	C396.343262,189.745483 396.852875,195.969055 397.148804,202.202759 
	C397.185394,202.973602 396.084473,203.798462 395.077576,204.539871 
z"/>
<path fill="#FEEEE4" opacity="1.000000" stroke="none" 
	d="
M309.031250,191.368073 
	C309.226135,190.373688 309.401672,189.807556 309.577240,189.241425 
	C309.929688,189.238083 310.282135,189.234741 310.634583,189.231384 
	C311.119690,194.130219 311.604797,199.029053 312.089905,203.927887 
	C311.610779,204.266434 311.131653,204.604996 310.652527,204.943558 
	C309.825775,203.876846 308.321320,202.824203 308.298889,201.740814 
	C308.230316,198.432327 308.732056,195.112045 309.031250,191.368073 
z"/>
<path fill="#FEEEE4" opacity="1.000000" stroke="none" 
	d="
M283.701691,278.678894 
	C280.109924,283.199432 276.649780,287.393036 273.189636,291.586639 
	C272.584534,291.089905 271.979431,290.593201 271.374329,290.096466 
	C275.138458,285.113342 278.902588,280.130219 282.666718,275.147095 
	C283.055573,275.339142 283.444458,275.531158 283.833313,275.723206 
	C283.833313,276.599457 283.833313,277.475708 283.701691,278.678894 
z"/>
<path fill="#FEEEE4" opacity="1.000000" stroke="none" 
	d="
M310.533417,269.289948 
	C309.013367,272.059143 307.230255,274.568909 305.447113,277.078705 
	C304.918945,276.681915 304.390808,276.285156 303.862640,275.888367 
	C305.118439,272.917725 306.361786,269.937408 310.533417,269.289948 
z"/>
<path fill="#9E223F" opacity="1.000000" stroke="none" 
	d="
M151.051697,282.063141 
	C151.425507,281.745056 151.872635,281.522766 152.319763,281.300476 
	C152.132019,281.603577 151.944290,281.906708 151.510300,282.282990 
	C151.264038,282.356140 151.125031,282.158936 151.051697,282.063141 
z"/>
<path fill="#F1BC2A" opacity="1.000000" stroke="none" 
	d="
M96.015999,130.016602 
	C95.789024,130.570679 95.545799,131.108994 95.302582,131.647324 
	C95.083611,131.528214 94.864639,131.409103 94.645668,131.289993 
	C94.918221,130.922241 95.190773,130.554504 95.713898,130.079620 
	C95.964478,129.972473 95.999748,130.000870 96.015999,130.016602 
z"/>
<path fill="#F1BC2A" opacity="1.000000" stroke="none" 
	d="
M77.402580,230.487946 
	C76.927124,230.426300 76.637421,230.190964 76.347717,229.955627 
	C76.536156,229.778854 76.724602,229.602066 76.913048,229.425293 
	C77.138145,229.721619 77.363235,230.017944 77.402580,230.487946 
z"/>
</svg>